<svg width="70" height="56" viewBox="0 0 70 56" fill="none" xmlns="http://www.w3.org/2000/svg">
<path d="M12.8111 7.6605C12.8111 3.41991 15.9978 0 20.0064 0C23.9895 0 27.2017 3.41991 27.2017 7.6605C27.1761 11.9286 23.9639 15.321 20.0064 15.321C16.0234 15.321 12.8111 11.9011 12.8111 7.6605ZM52.5 40.5161H39.4445V28.0951C39.4445 22.044 34.4775 17.1528 28.8889 17.1528H11.3889C5.25336 17.1528 -0.00275449 22.8132 2.32835e-05 28.3909V51.1627C-0.00719894 53.6862 1.66697 55.004 3.33336 55.0073C5.00391 55.0105 6.66669 53.6927 6.66669 51.1627V28.9823H8.88891V55.0073H30.5556V28.9823H32.7778L32.8003 43.8787C32.7856 46.4601 34.2842 47.5594 35.8333 47.6138H52.5C57.0453 47.6138 57.0453 40.5161 52.5 40.5161ZM70 8.33508V33.6899C70 35.5421 68.6422 37.0217 66.8919 37.0217H46.2592C44.5089 37.0217 43.1511 35.5421 43.1511 33.6899V16.4667H47.2883V8.33508H70ZM68.08 10.481H49.3039V31.8264C49.3039 32.4363 48.8689 32.8881 48.2961 32.8881C47.7233 32.8881 47.2883 32.4025 47.2883 31.8264V18.6126H45.0606V33.6899C45.0606 34.3562 45.6333 34.8758 46.2592 34.8758H66.9131C67.5389 34.8758 68.0586 34.3112 68.0586 33.6334H68.0797L68.08 10.481ZM66.0644 12.5139H51.2131V20.6455H66.0644V12.5139ZM57.472 22.9043H51.2133V24.9372H57.472V22.9043ZM59.9117 24.9372H66.0644V22.9043H59.9117V24.9372ZM57.472 26.8572H51.2133V28.8901H57.472V26.8572ZM59.9117 28.8901H66.0644V26.8572H59.9117V28.8901ZM59.9117 32.9559H66.0644V30.923H59.9117V32.9559ZM57.472 30.923H51.2133V32.9559H57.472V30.923Z" fill="#754DE8"/>
</svg>
