<svg width="160" height="33" viewBox="0 0 160 33" fill="none" xmlns="http://www.w3.org/2000/svg">
<path d="M57.7036 32.3355C57.5392 32.3355 57.3853 32.2547 57.292 32.1193L51.6074 23.8759C51.5068 23.7299 51.3363 23.6484 51.1594 23.6602C50.5526 23.7008 50.0653 23.7212 49.6978 23.7212H43.3281C43.0519 23.7212 42.8281 23.945 42.8281 24.2212V31.8355C42.8281 32.1116 42.6042 32.3355 42.3281 32.3355H39.3571C39.081 32.3355 38.8571 32.1116 38.8571 31.8355V4.5255C38.8571 4.24936 39.081 4.0255 39.3571 4.0255H49.6978C53.2981 4.0255 56.1306 4.90176 58.1955 6.65428C60.2604 8.40681 61.2928 10.8199 61.2928 13.8935C61.2928 16.0775 60.7634 17.9378 59.7045 19.4747C58.7578 20.8486 57.4515 21.8885 55.7854 22.5944C55.4825 22.7227 55.3619 23.0971 55.5494 23.3674L61.2249 31.5505C61.4549 31.8821 61.2176 32.3355 60.8141 32.3355H57.7036ZM49.5786 20.2835C52.0935 20.2835 54.0128 19.7308 55.3365 18.6254C56.6601 17.5199 57.3219 15.9427 57.3219 13.8935C57.3219 11.8444 56.6601 10.2807 55.3365 9.20218C54.0128 8.09675 52.0935 7.54403 49.5786 7.54403H43.3281C43.0519 7.54403 42.8281 7.76789 42.8281 8.04403V19.7835C42.8281 20.0597 43.0519 20.2835 43.3281 20.2835H49.5786Z" fill="black"/>
<path d="M103.377 11.0772C103.377 10.8011 103.601 10.5772 103.877 10.5772H109.072C109.348 10.5772 109.572 10.8011 109.572 11.0772V31.8355C109.572 32.1116 109.348 32.3355 109.072 32.3355H106.474H103.377V27.0122V11.0772Z" fill="black"/>
<path d="M125.204 10.2537C127.851 10.2537 129.982 11.0626 131.597 12.6803C133.238 14.298 134.059 16.6976 134.059 19.8791V31.8355C134.059 32.1116 133.835 32.3355 133.559 32.3355H128.364C128.088 32.3355 127.864 32.1116 127.864 31.8355V20.8497C127.864 19.1242 127.493 17.8435 126.752 17.0076C126.011 16.1449 124.939 15.7135 123.536 15.7135C121.974 15.7135 120.73 16.2123 119.803 17.2099C118.877 18.1805 118.413 19.6364 118.413 21.5777V31.8355C118.413 32.1116 118.189 32.3355 117.913 32.3355H112.719C112.443 32.3355 112.219 32.1116 112.219 31.8355V11.0772C112.219 10.8011 112.443 10.5772 112.719 10.5772H117.635C117.911 10.5772 118.135 10.8011 118.135 11.0772V11.817C118.135 12.2759 118.727 12.5143 119.086 12.229C119.706 11.7371 120.408 11.3348 121.193 11.0221C122.411 10.5098 123.748 10.2537 125.204 10.2537Z" fill="black"/>
<path d="M146.094 24.2437C145.908 24.0087 145.559 23.9888 145.347 24.2012L142.912 26.6485C142.819 26.7422 142.766 26.869 142.766 27.0012V31.8355C142.766 32.1116 142.542 32.3355 142.266 32.3355H137.072C136.795 32.3355 136.572 32.1116 136.572 31.8355V2.82691C136.572 2.55076 136.795 2.3269 137.072 2.3269H142.266C142.542 2.3269 142.766 2.55076 142.766 2.8269V18.1357C142.766 18.5768 143.296 18.8018 143.613 18.4955L151.675 10.7174C151.768 10.6275 151.892 10.5772 152.022 10.5772H158.029C158.47 10.5772 158.695 11.1069 158.389 11.4244L150.611 19.4872C150.439 19.6658 150.423 19.9437 150.575 20.1401L159.377 31.5297C159.631 31.8584 159.397 32.3355 158.982 32.3355H152.737C152.584 32.3355 152.44 32.2656 152.345 32.1457L146.094 24.2437Z" fill="black"/>
<path d="M88.8471 30.3538C90.2502 31.6749 92.2224 32.3355 94.7638 32.3355H103.377V27.0122H95.7303C94.8832 27.0122 94.2214 26.7695 93.7449 26.2842C93.2948 25.7719 93.0698 25.0575 93.0698 24.1407V15.7838C93.0698 15.5076 93.2937 15.2838 93.5698 15.2838H97.8909C98.167 15.2838 98.3909 15.0599 98.3909 14.7838V10.9306C98.3909 10.6545 98.167 10.4306 97.8909 10.4306H93.5698C93.2937 10.4306 93.0698 10.2068 93.0698 9.93063V5.63263C93.0698 5.35648 92.846 5.13263 92.5698 5.13263H87.3752C87.099 5.13263 86.8752 5.35648 86.8752 5.63263V9.93063C86.8752 10.2068 86.6513 10.4306 86.3752 10.4306H84.0793C83.8032 10.4306 83.5793 10.6545 83.5793 10.9306V14.7838C83.5793 15.0599 83.8032 15.2838 84.0793 15.2838H86.3701C86.6482 15.2838 86.8729 15.5107 86.8701 15.7888L86.7822 24.53C86.7822 27.0914 87.4705 29.0326 88.8471 30.3538Z" fill="black"/>
<path fill-rule="evenodd" clip-rule="evenodd" d="M82.773 21.7395C82.773 21.9389 82.7611 22.1811 82.7371 22.4659C82.7157 22.7202 82.5004 22.9123 82.2452 22.9123H66.1858C65.8848 22.9123 65.6506 23.1769 65.7081 23.4723C66.0256 25.1032 66.8032 26.4399 68.0409 27.4823C69.444 28.6147 71.178 29.1809 73.2428 29.1809H82.273C82.5492 29.1809 82.773 29.4048 82.773 29.6809V32.0781C82.773 32.3543 82.5492 32.5781 82.273 32.5781H73.1237C70.9 32.5781 68.9278 32.1198 67.207 31.2031C65.4863 30.2594 64.1494 28.9518 63.1964 27.2801C62.2699 25.6085 61.8066 23.7212 61.8066 21.6181C61.8066 19.5421 62.2566 17.6682 63.1567 15.9966C64.0832 14.3249 65.3407 13.0308 66.9291 12.1141C68.5439 11.1704 70.3573 10.6986 72.3692 10.6986C74.3812 10.6986 76.1681 11.1704 77.73 12.1141C79.3183 13.0308 80.5493 14.3249 81.4229 15.9966C82.323 17.6682 82.773 19.5825 82.773 21.7395ZM67.763 15.673C69.0072 14.5406 70.5426 13.9744 72.3692 13.9744C74.1959 13.9744 75.718 14.5541 76.9358 15.7135C78.0498 16.7274 78.75 18.0115 79.0364 19.5659C79.0906 19.8601 78.857 20.1217 78.5578 20.1217H66.1797C65.8809 20.1217 65.6474 19.8607 65.7001 19.5665C65.983 17.9867 66.6706 16.6888 67.763 15.673Z" fill="black"/>
<path fill-rule="evenodd" clip-rule="evenodd" d="M18.6818 19.8337C20.4638 19.6497 22.9794 18.9896 25.0771 17.5823C27.2757 16.1072 28.988 13.8383 28.988 10.4019C28.988 6.85883 27.7705 4.7358 26.3294 3.4874C24.8618 2.21599 23.094 1.79321 21.9416 1.79321H2.4711C1.84137 1.79321 1.52787 2.57008 1.97573 3.0208L18.6818 19.8337Z" fill="#EA0022"/>
<path d="M25.0771 17.5823C22.9794 18.9896 20.4638 19.6497 18.6818 19.8337L1.97573 3.0208C1.52787 2.57008 1.84137 1.79321 2.4711 1.79321H21.9416C23.094 1.79321 24.8618 2.21599 26.3294 3.4874C27.7705 4.7358 28.988 6.85883 28.988 10.4019C28.988 13.8383 27.2757 16.1072 25.0771 17.5823Z" fill="#EA0022"/>
<path d="M25.078 18.2999C22.9803 19.7073 20.4647 20.3674 18.6827 20.5513L2.29251 3.33252L15.6798 14.1906C18.6827 16.6024 21.7119 16.3882 24.5666 15.0205C26.0715 14.2995 27.8126 12.9475 29.1405 9.31236C29.3057 10.5113 29.9192 14.9564 25.078 18.2999Z" fill="#9B0003"/>
<path fill-rule="evenodd" clip-rule="evenodd" d="M15.6017 31.2063L4.10755 20.0485C3.65904 19.6131 2.91666 19.9368 2.91666 20.5677V30.4889C2.91666 30.8851 3.23214 31.2063 3.6213 31.2063H15.6017Z" fill="#BDBDBD"/>
<path d="M4.10755 20.0485L15.6017 31.2063H3.6213C3.23214 31.2063 2.91666 30.8851 2.91666 30.4889V20.5677C2.91666 19.9368 3.65904 19.6131 4.10755 20.0485Z" fill="#BDBDBD"/>
<path opacity="0.58" d="M3.94814 27.8644L3.94819 25.9087C3.99003 27.5988 4.30741 28.74 5.18986 29.2383C6.78084 30.1021 6.1798 30.2101 4.42965 30.1021C3.90034 30.0695 3.9698 28.7394 3.94814 27.8644Z" fill="white"/>
<path d="M9.72517 25.5278C13.4111 30.4438 9.203 31.6727 6.63821 31.6727H16.1755L9.72517 25.5278Z" fill="#797979"/>
<path opacity="0.58" d="M22.1089 2.63574H16.928C20.1008 2.63574 22.9384 3.23176 23.9156 4.92378C24.9006 7.15519 27.247 7.0234 26.2952 5.19297C25.3434 3.36254 23.7516 2.63574 22.1089 2.63574Z" fill="white"/>
<path fill-rule="evenodd" clip-rule="evenodd" d="M0.984907 4.04141C-0.358657 2.68926 0.581801 0.358643 2.47101 0.358643H21.9415C23.3728 0.358643 25.4806 0.868477 27.2426 2.39489C29.0311 3.94432 30.3972 6.48433 30.3972 10.4021C30.3972 14.4266 28.3515 17.1039 25.8525 18.7805C23.9402 20.0635 21.7471 20.7761 19.9415 21.1017L27.7484 28.9585C29.092 30.3106 28.1515 32.6413 26.2623 32.6413H3.62086C2.45337 32.6413 1.50694 31.6777 1.50694 30.4891V20.5679C1.50694 18.6751 3.7341 17.7041 5.07963 19.0102L17.6435 31.2065H26.2623C26.892 31.2065 27.2055 30.4296 26.7577 29.9789L0.984907 4.04141ZM25.077 17.5825C22.9793 18.9899 20.4637 19.65 18.6817 19.8339L1.97564 3.02102C1.52778 2.57029 1.84128 1.79343 2.47101 1.79343H21.9415C23.0939 1.79343 24.8617 2.2162 26.3293 3.48762C27.7704 4.73601 28.988 6.85904 28.988 10.4021C28.988 13.8385 27.2756 16.1074 25.077 17.5825ZM15.6013 31.2065L4.10712 20.0486C3.65861 19.6133 2.91622 19.9369 2.91622 20.5679V30.4891C2.91622 30.8853 3.2317 31.2065 3.62086 31.2065H15.6013Z" fill="black"/>
<path fill-rule="evenodd" clip-rule="evenodd" d="M0.737406 4.29656C-0.830084 2.71905 0.267115 0 2.47119 0H21.9417C23.4428 0 25.6355 0.531599 27.4711 2.12176C29.3465 3.74645 30.7497 6.3907 30.7497 10.4022C30.7497 14.5737 28.6206 17.3531 26.0465 19.0801C24.3153 20.2416 22.3652 20.9449 20.6621 21.3224L27.9963 28.7034C29.5638 30.281 28.4665 33 26.2625 33H3.62104C2.25897 33 1.1548 31.8758 1.1548 30.4891V20.5679C1.1548 18.3597 3.75316 17.2268 5.32294 18.7507L17.7847 30.8478H26.2625C26.5773 30.8478 26.7341 30.4594 26.5102 30.234L0.737406 4.29656ZM14.7214 30.8478L3.86417 20.3083C3.63992 20.0906 3.26872 20.2524 3.26872 20.5679V30.4891C3.26872 30.6872 3.42646 30.8478 3.62104 30.8478H14.7214ZM18.8105 19.459C20.5375 19.2568 22.9068 18.6091 24.8833 17.283C27.0069 15.8583 28.6358 13.6915 28.6358 10.4022C28.6358 6.95278 27.4554 4.93399 26.1012 3.76085C24.7071 2.55318 23.0244 2.15217 21.9417 2.15217H2.47119C2.15633 2.15217 1.99958 2.54061 2.22351 2.76597L18.8105 19.459Z" fill="black"/>
</svg>
