<svg width="24" height="25" viewBox="0 0 24 25" fill="none" xmlns="http://www.w3.org/2000/svg">
<path d="M12.0099 0C5.37726 0 0 5.37726 0 12.0099C0 17.1005 3.16309 21.4497 7.63096 23.1993C7.52223 22.2504 7.43327 20.7874 7.6705 19.7496C7.88796 18.8105 9.07412 13.7792 9.07412 13.7792C9.07412 13.7792 8.71827 13.0576 8.71827 12C8.71827 10.3295 9.68697 9.08401 10.8929 9.08401C11.9209 9.08401 12.4151 9.85501 12.4151 10.7743C12.4151 11.8023 11.7627 13.3443 11.4168 14.7776C11.1301 15.9736 12.0198 16.9522 13.196 16.9522C15.3311 16.9522 16.972 14.6985 16.972 11.4563C16.972 8.57989 14.9061 6.5733 11.9506 6.5733C8.53046 6.5733 6.52388 9.13343 6.52388 11.7825C6.52388 12.8105 6.91926 13.9176 7.4135 14.5206C7.51234 14.6392 7.52223 14.7479 7.49257 14.8665C7.40361 15.2421 7.19603 16.0626 7.1565 16.2306C7.10707 16.4481 6.97857 16.4975 6.75123 16.3888C5.24876 15.687 4.30971 13.5024 4.30971 11.7331C4.30971 7.94727 7.05765 4.46787 12.2471 4.46787C16.4085 4.46787 19.6507 7.43327 19.6507 11.4069C19.6507 15.5486 17.0412 18.8797 13.4234 18.8797C12.2076 18.8797 11.0609 18.2471 10.6754 17.4959C10.6754 17.4959 10.0725 19.7891 9.9242 20.3525C9.65732 21.4003 8.92585 22.7051 8.43162 23.5057C9.55847 23.8517 10.7446 24.0395 11.9901 24.0395C18.6227 24.0395 24 18.6622 24 12.0296C24.0197 5.37726 18.6425 0 12.0099 0Z" fill="#E60019"/>
</svg>
